<svg xmlns="http://www.w3.org/2000/svg" viewBox="0 0 120.58 120.58">
  <defs>
    <style>
      .a {
        fill: #2a4b9b;
      }

      .b {
        fill: #262958;
      }

      .c {
        fill: #78c8e8;
      }

      .d {
        fill: #f4f6f9;
      }

      .e {
        fill: #256fb6;
        opacity: 0.18;
      }

      .f {
        fill: #263954;
      }

      .g {
        fill: #fdfdfd;
        opacity: 0.1;
      }
    </style>
  </defs>
  <title>IconIgluCircle-1</title>
  <path class="a" d="M121.18,61a60.32,60.32,0,0,1-53.1,59.87,61.06,61.06,0,0,1-7.2.42A60.34,60.34,0,1,1,121.18,61Z" transform="translate(-0.59 -0.74)"/>
  <path class="b" d="M121.18,61a60.32,60.32,0,0,1-53.1,59.87L25.93,95.27h0l-1.81-1.11a2.45,2.45,0,0,1-.41-1.36V63.5L50.34,19.7A40.41,40.41,0,0,1,72.45,20a40.56,40.56,0,0,1,4.94,1.87l7.55,4.59,34.73,21.12A60.3,60.3,0,0,1,121.18,61Z" transform="translate(-0.59 -0.74)"/>
  <path class="c" d="M98,54a1.67,1.67,0,0,1,0,.39V92.8a2.48,2.48,0,0,1-2.48,2.48H25.93a2.5,2.5,0,0,1-2.22-2.47V54.42a2.47,2.47,0,0,1,0-.39c0-.48,0-1,0-1.43A31.69,31.69,0,0,1,24,48a32.17,32.17,0,0,1,3.88-11.28,35.28,35.28,0,0,1,10-11.1A38.26,38.26,0,0,1,49.32,20l1-.29A40.41,40.41,0,0,1,72.45,20a40.56,40.56,0,0,1,4.94,1.87,37.26,37.26,0,0,1,6.46,3.77c.37.27.74.54,1.09.82.72.56,1.41,1.14,2.07,1.75a34.26,34.26,0,0,1,8.23,11.27A31.9,31.9,0,0,1,98.06,52.6C98.06,53.08,98.05,53.55,98,54Z" transform="translate(-0.59 -0.74)"/>
  <g>
    <path class="d" d="M95.24,39.47H65.77a2.58,2.58,0,0,1-2.59-2.58v-6.1a2.59,2.59,0,0,1,2.59-2.59H87A34.26,34.26,0,0,1,95.24,39.47Z" transform="translate(-0.59 -0.74)"/>
    <path class="d" d="M98.06,79.74V91H80.21a2.59,2.59,0,0,1-2.59-2.58v-6.1a2.59,2.59,0,0,1,2.59-2.59Z" transform="translate(-0.59 -0.74)"/>
    <path class="d" d="M98.06,63.65V74.92H92.68a2.58,2.58,0,0,1-2.58-2.58v-6.1a2.59,2.59,0,0,1,2.58-2.59Z" transform="translate(-0.59 -0.74)"/>
    <g>
      <rect class="d" x="52.11" y="50.91" width="29.28" height="11.27" rx="5.64"/>
      <path class="d" d="M54.76,39.32v6.1A2.59,2.59,0,0,1,52.17,48H24a32.17,32.17,0,0,1,3.88-11.28H52.17A2.59,2.59,0,0,1,54.76,39.32Z" transform="translate(-0.59 -0.74)"/>
      <path class="d" d="M33.58,65v6.11a2.38,2.38,0,0,1-2.1,2.58H23.71V62.45h7.77A2.38,2.38,0,0,1,33.58,65Z" transform="translate(-0.59 -0.74)"/>
      <path class="d" d="M83.85,25.63H37.91A38.26,38.26,0,0,1,49.32,20H72.45A38.08,38.08,0,0,1,83.85,25.63Z" transform="translate(-0.59 -0.74)"/>
      <path class="d" d="M40.09,81.51v6.1a2.67,2.67,0,0,1-2.75,2.59H23.71V78.93H37.34A2.67,2.67,0,0,1,40.09,81.51Z" transform="translate(-0.59 -0.74)"/>
    </g>
    <path class="d" d="M53.53,66V77.3H46.44c-1.87,0-3.4-1.16-3.4-2.59v-6.1c0-1.42,1.53-2.58,3.4-2.58Z" transform="translate(-0.59 -0.74)"/>
  </g>
  <path class="e" d="M98,54a1.67,1.67,0,0,1,0,.39V92.8a2.48,2.48,0,0,1-2.48,2.48H60.88v-77A40,40,0,0,1,72.45,20a38.08,38.08,0,0,1,11.4,5.64A35.77,35.77,0,0,1,87,28.2a34.26,34.26,0,0,1,8.23,11.27A31.9,31.9,0,0,1,98.06,52.6C98.06,53.08,98.05,53.55,98,54Z" transform="translate(-0.59 -0.74)"/>
  <path class="f" d="M75.65,77.71a2.41,2.41,0,0,1,.1.67V90.75a2.48,2.48,0,0,1-2.48,2.48H48.5A2.48,2.48,0,0,1,46,90.75V78.38a2.41,2.41,0,0,1,.1-.67,13.13,13.13,0,0,1-.1-1.54c0-7.48,6.48-13.55,14.54-13.72h.32c8.21,0,14.87,6.14,14.87,13.72A13.13,13.13,0,0,1,75.65,77.71Z" transform="translate(-0.59 -0.74)"/>
  <path class="g" d="M60.56,62.45V93.23H48.5A2.48,2.48,0,0,1,46,90.75V78.38a2.41,2.41,0,0,1,.1-.67,13.13,13.13,0,0,1-.1-1.54C46,68.69,52.5,62.62,60.56,62.45Z" transform="translate(-0.59 -0.74)"/>
</svg>
