<svg xmlns="http://www.w3.org/2000/svg" xmlns:xlink="http://www.w3.org/1999/xlink" viewBox="0 0 476.67 480">
  <defs>
    <style>
      .a {
        fill: url(#a);
      }

      .b {
        fill: #e0e0e0;
      }

      .c {
        fill: url(#b);
      }

      .d, .e {
        fill: #fff;
      }

      .d {
        fill-rule: evenodd;
      }
    </style>
    <linearGradient id="a" data-name="Gradiente sem nome 2" x1="238.34" y1="480" x2="238.34" gradientUnits="userSpaceOnUse">
      <stop offset="0" stop-color="#37aa3c"/>
      <stop offset="1" stop-color="#73bb68"/>
    </linearGradient>
    <linearGradient id="b" x1="110.26" y1="295.03" x2="110.26" y2="442.69" gradientTransform="matrix(2.04, 0, 0, -2.04, 13.31, 989.99)" xlink:href="#a"/>
  </defs>
  <title>whatsappicon</title>
  <ellipse class="a" cx="238.34" cy="240" rx="238.34" ry="240"/>
  <path class="b" d="M349.72,127A155.6,155.6,0,0,0,239,81.11c-86.28,0-156.49,70.19-156.52,156.47a156.15,156.15,0,0,0,20.89,78.23L81.15,396.89l83-21.76a156.38,156.38,0,0,0,74.8,19.05H239c86.27,0,156.49-70.2,156.53-156.48A155.55,155.55,0,0,0,349.72,127ZM239,367.75h-.05a129.89,129.89,0,0,1-66.21-18.13L168,346.8l-49.24,12.91,13.15-48-3.1-4.92a129.75,129.75,0,0,1-19.89-69.21c0-71.71,58.39-130,130.15-130a130.1,130.1,0,0,1,130,130.15C369.06,309.41,310.7,367.75,239,367.75Z"/>
  <path class="c" d="M88.34,387.89l21.19-77.38a149,149,0,0,1-19.94-74.65c0-82.33,67-149.31,149.37-149.31A149.37,149.37,0,0,1,388.33,236c0,82.33-67,149.32-149.36,149.32h-.07a149.36,149.36,0,0,1-71.38-18.17L88.34,387.89Z"/>
  <path class="d" d="M200.31,171.15c-2.89-6.44-5.94-6.57-8.7-6.68-2.25-.1-4.83-.09-7.41-.09a14.2,14.2,0,0,0-10.3,4.84c-3.55,3.87-13.54,13.22-13.54,32.24s13.86,37.4,15.79,40,26.75,42.86,66,58.36c32.66,12.88,39.31,10.32,46.4,9.67s22.87-9.35,26.09-18.38,3.22-16.76,2.26-18.38-3.55-2.57-7.41-4.51-22.88-11.29-26.42-12.57-6.12-1.94-8.7,1.93-10,12.58-12.24,15.15-4.51,2.91-8.38,1-16.32-6-31.09-19.19c-11.49-10.25-19.25-22.9-21.51-26.77s-.24-6,1.7-7.89c1.74-1.74,3.87-4.52,5.8-6.77a26.22,26.22,0,0,0,3.86-6.45,7.1,7.1,0,0,0-.32-6.77c-1-1.94-8.48-21.06-11.92-28.7Z"/>
  <path class="e" d="M348.44,126.5A153.81,153.81,0,0,0,239,81.14c-85.29,0-154.7,69.39-154.74,154.67a154.4,154.4,0,0,0,20.66,77.33L83,393.29l82-21.5a154.69,154.69,0,0,0,73.94,18.82H239c85.27,0,154.69-69.39,154.73-154.67A153.78,153.78,0,0,0,348.44,126.5ZM239,364.49h-.05a128.48,128.48,0,0,1-65.46-17.92l-4.7-2.79-48.67,12.76,13-47.44L130,304.24a128.26,128.26,0,0,1-19.66-68.42c0-70.88,57.72-128.55,128.65-128.55A128.6,128.6,0,0,1,367.59,235.93C367.56,306.81,309.87,364.49,239,364.49Z"/>
</svg>
