<svg xmlns="http://www.w3.org/2000/svg" viewBox="0 0 494.81 497.03">
  <defs>
    <style>
      .a {
        fill: #e0e0e0;
      }

      .b {
        fill: #85be4c;
      }

      .c, .d {
        fill: #fff;
      }

      .c {
        fill-rule: evenodd;
      }
    </style>
  </defs>
  <title>whatsapp-icon-hover</title>
  <path class="a" d="M425.42,73.6A244.82,244.82,0,0,0,251.15,1.37C115.34,1.37,4.83,111.85,4.77,247.65A245.87,245.87,0,0,0,37.66,370.78L2.7,498.41l130.61-34.25a246.28,246.28,0,0,0,117.73,30h.11c135.78,0,246.31-110.5,246.37-246.29A244.79,244.79,0,0,0,425.42,73.6ZM251.15,452.54h-.08A204.49,204.49,0,0,1,146.84,424l-7.48-4.43-77.5,20.32,20.69-75.54-4.88-7.74a204.23,204.23,0,0,1-31.3-108.94C46.41,134.8,138.27,43,251.22,43a204.78,204.78,0,0,1,204.7,204.86C455.87,360.71,364,452.54,251.15,452.54Z" transform="translate(-2.7 -1.37)"/>
  <path class="b" d="M14,484.24,47.37,362.45A234.58,234.58,0,0,1,16,245c.06-129.59,105.53-235,235.11-235a235.14,235.14,0,0,1,235.12,235.2c-.06,129.6-105.53,235-235.11,235H251a235.08,235.08,0,0,1-112.35-28.61L14,484.24Z" transform="translate(-2.7 -1.37)"/>
  <path class="c" d="M190.26,143.09c-4.55-10.13-9.35-10.33-13.69-10.51-3.55-.15-7.61-.14-11.66-.14a22.36,22.36,0,0,0-16.23,7.61c-5.58,6.09-21.3,20.81-21.3,50.75s21.81,58.87,24.85,62.94,42.1,67.46,104,91.85c51.41,20.27,61.87,16.24,73,15.22s36-14.72,41.08-28.93,5.07-26.38,3.55-28.93-5.58-4.05-11.67-7.1-36-17.76-41.58-19.79S311,273,306.89,279.11,291.18,298.9,287.63,303s-7.1,4.58-13.19,1.53-25.69-9.47-48.94-30.2c-18.09-16.13-30.3-36-33.85-42.14s-.38-9.38,2.67-12.41c2.73-2.73,6.09-7.11,9.13-10.66s4.05-6.09,6.08-10.15,1-7.62-.51-10.66-13.34-33.13-18.76-45.17Z" transform="translate(-2.7 -1.37)"/>
  <path class="d" d="M423.41,72.82A242,242,0,0,0,251.14,1.42C116.89,1.42,7.64,110.63,7.59,244.87a243,243,0,0,0,32.5,121.72L5.54,492.75l129.11-33.86A243.41,243.41,0,0,0,251,488.53h.11c134.22,0,243.48-109.23,243.54-243.46A242,242,0,0,0,423.41,72.82ZM251.13,447.41h-.07A202.16,202.16,0,0,1,148,419.2l-7.4-4.38L64,434.9l20.45-74.67-4.82-7.65A201.82,201.82,0,0,1,48.71,244.89c0-111.58,90.84-202.35,202.5-202.35A202.45,202.45,0,0,1,453.56,245.05C453.51,356.63,362.7,447.41,251.13,447.41Z" transform="translate(-2.7 -1.37)"/>
</svg>
