<svg xmlns="http://www.w3.org/2000/svg" xmlns:xlink="http://www.w3.org/1999/xlink" viewBox="0 0 1256.72 480">
  <defs>
    <style>
      .a {
        fill: url(#a);
      }

      .b {
        fill: url(#b);
      }

      .c {
        fill: #e0e0e0;
      }

      .d {
        fill: url(#c);
      }

      .e, .f {
        fill: #fff;
      }

      .e {
        fill-rule: evenodd;
      }

      .g {
        font-size: 137.43px;
        fill: #f6f6f6;
        font-family: SourceSansPro-Black, Source Sans Pro;
        font-weight: 800;
      }
    </style>
    <linearGradient id="a" data-name="Gradiente sem nome 2" x1="575.33" y1="480" x2="575.33" gradientUnits="userSpaceOnUse">
      <stop offset="0" stop-color="#37aa3c"/>
      <stop offset="1" stop-color="#73bb68"/>
    </linearGradient>
    <linearGradient id="b" x1="1018.38" x2="1018.38" y2="0" xlink:href="#a"/>
    <linearGradient id="c" x1="890.31" y1="295.03" x2="890.31" y2="442.69" gradientTransform="matrix(2.04, 0, 0, -2.04, -798.55, 989.99)" xlink:href="#a"/>
  </defs>
  <title>whatsappicon-hover</title>
  <rect class="a" width="1150.67" height="480" rx="125.11"/>
  <ellipse class="b" cx="1018.38" cy="240" rx="238.34" ry="240"/>
  <path class="c" d="M1129.76,127A155.56,155.56,0,0,0,1019,81.11c-86.28,0-156.49,70.19-156.53,156.47a156.25,156.25,0,0,0,20.89,78.23l-22.2,81.08,83-21.76a156.44,156.44,0,0,0,74.8,19.05h.07c86.26,0,156.49-70.2,156.53-156.48A155.56,155.56,0,0,0,1129.76,127ZM1019,367.75h0a129.93,129.93,0,0,1-66.22-18.13L948,346.8l-49.24,12.91,13.15-48-3.1-4.92a129.66,129.66,0,0,1-19.89-69.21c0-71.71,58.39-130,130.15-130a130.1,130.1,0,0,1,130.05,130.15C1149.11,309.41,1090.74,367.75,1019,367.75Z"/>
  <path class="d" d="M868.38,387.89l21.2-77.38a149.06,149.06,0,0,1-20-74.65c0-82.33,67-149.31,149.38-149.31A149.37,149.37,0,0,1,1168.38,236c0,82.33-67.05,149.32-149.37,149.32H1019a149.33,149.33,0,0,1-71.38-18.17l-79.19,20.76Z"/>
  <path class="e" d="M980.36,171.15c-2.9-6.44-5.94-6.57-8.7-6.68-2.25-.1-4.83-.09-7.41-.09a14.2,14.2,0,0,0-10.31,4.84c-3.54,3.87-13.53,13.22-13.53,32.24s13.85,37.4,15.79,40,26.74,42.86,66,58.36c32.66,12.88,39.3,10.32,46.39,9.67s22.88-9.35,26.1-18.38,3.22-16.76,2.25-18.38-3.54-2.57-7.41-4.51-22.87-11.29-26.42-12.57-6.12-1.94-8.7,1.93-10,12.58-12.23,15.15-4.52,2.91-8.38,1-16.32-6-31.09-19.19c-11.49-10.25-19.25-22.9-21.51-26.77s-.24-6,1.7-7.89c1.73-1.74,3.86-4.52,5.8-6.77a26.53,26.53,0,0,0,3.86-6.45,7.13,7.13,0,0,0-.32-6.77c-1-1.94-8.48-21.06-11.92-28.7Z"/>
  <path class="f" d="M1128.48,126.5A153.78,153.78,0,0,0,1019,81.14c-85.29,0-154.69,69.39-154.73,154.67A154.39,154.39,0,0,0,885,313.14l-22,80.15,82-21.5A154.66,154.66,0,0,0,1019,390.61h.06c85.28,0,154.7-69.39,154.73-154.67a153.73,153.73,0,0,0-45.28-109.44ZM1019,364.49h0a128.44,128.44,0,0,1-65.45-17.92l-4.7-2.79-48.68,12.76,13-47.44-3.06-4.86a128.18,128.18,0,0,1-19.66-68.42c0-70.88,57.71-128.55,128.65-128.55a128.61,128.61,0,0,1,128.56,128.66C1147.61,306.81,1089.91,364.49,1019,364.49Z"/>
  <text class="g" transform="translate(39.33 207.94)">Chamar pelo<tspan x="80.26" y="164.92">WhatsApp</tspan></text>
</svg>
