<svg xmlns="http://www.w3.org/2000/svg" xmlns:xlink="http://www.w3.org/1999/xlink" viewBox="0 0 476.67 781.33">
  <defs>
    <style>
      .a {
        fill: url(#a);
      }

      .b {
        fill: url(#b);
      }

      .c {
        fill: #e0e0e0;
      }

      .d {
        fill: url(#c);
      }

      .e, .f {
        fill: #fff;
      }

      .e {
        fill-rule: evenodd;
      }
    </style>
    <linearGradient id="a" data-name="Gradiente sem nome 3" x1="237.09" y1="36.37" x2="239.59" y2="649.57" gradientUnits="userSpaceOnUse">
      <stop offset="0" stop-color="#37aa3c"/>
      <stop offset="0.06" stop-color="#3cab40"/>
      <stop offset="0.44" stop-color="#5ab456"/>
      <stop offset="0.77" stop-color="#6cb963"/>
      <stop offset="1" stop-color="#73bb68"/>
    </linearGradient>
    <linearGradient id="b" data-name="Gradiente sem nome 2" x1="238.34" y1="781.33" x2="238.34" y2="301.33" gradientUnits="userSpaceOnUse">
      <stop offset="0" stop-color="#37aa3c"/>
      <stop offset="1" stop-color="#73bb68"/>
    </linearGradient>
    <linearGradient id="c" x1="110.26" y1="596.36" x2="110.26" y2="744.03" gradientTransform="matrix(2.04, 0, 0, -2.04, 13.31, 1906.28)" xlink:href="#b"/>
  </defs>
  <title>whatsapp-icon-hoverUp</title>
  <rect class="a" width="476.67" height="684" rx="136.64"/>
  <ellipse class="b" cx="238.34" cy="541.33" rx="238.34" ry="240"/>
  <path class="c" d="M349.72,428.33A155.6,155.6,0,0,0,239,382.44c-86.28,0-156.49,70.2-156.52,156.47a156.15,156.15,0,0,0,20.89,78.23L81.15,698.22l83-21.76a156.38,156.38,0,0,0,74.8,19H239c86.27,0,156.49-70.2,156.53-156.47a155.55,155.55,0,0,0-45.8-110.71ZM239,669.09h-.05A130,130,0,0,1,172.73,651L168,648.14l-49.24,12.91,13.15-48-3.1-4.92a129.72,129.72,0,0,1-19.89-69.21c0-71.71,58.39-130,130.15-130A130.1,130.1,0,0,1,369.09,539C369.06,610.74,310.7,669.09,239,669.09Z" transform="translate(0)"/>
  <path class="d" d="M88.34,689.23l21.19-77.38a149,149,0,0,1-19.94-74.66c0-82.33,67-149.31,149.37-149.31A149.37,149.37,0,0,1,388.33,537.31c0,82.34-67,149.33-149.36,149.33h-.07a149.37,149.37,0,0,1-71.38-18.18L88.34,689.23Z" transform="translate(0)"/>
  <path class="e" d="M200.31,472.48c-2.89-6.43-5.94-6.56-8.7-6.68-2.25-.09-4.83-.09-7.41-.09a14.2,14.2,0,0,0-10.3,4.84c-3.55,3.87-13.54,13.22-13.54,32.24s13.86,37.41,15.79,40,26.75,42.86,66,58.35c32.66,12.88,39.31,10.32,46.4,9.68s22.87-9.35,26.09-18.38,3.22-16.77,2.26-18.38-3.55-2.58-7.41-4.51S286.65,558.25,283.11,557s-6.12-1.93-8.7,1.94-10,12.57-12.24,15.15-4.51,2.9-8.38,1-16.32-6-31.09-19.19c-11.49-10.25-19.25-22.9-21.51-26.77s-.24-6,1.7-7.89c1.74-1.73,3.87-4.51,5.8-6.77a26.22,26.22,0,0,0,3.86-6.45,7.1,7.1,0,0,0-.32-6.77c-1-1.93-8.48-21.05-11.92-28.7Z" transform="translate(0)"/>
  <path class="f" d="M348.44,427.84A153.78,153.78,0,0,0,239,382.47c-85.29,0-154.7,69.39-154.74,154.67a154.35,154.35,0,0,0,20.66,77.33L83,694.63l82-21.51A154.7,154.7,0,0,0,238.92,692H239c85.27,0,154.69-69.4,154.73-154.68a153.75,153.75,0,0,0-45.28-109.43ZM239,665.82h-.05a128.38,128.38,0,0,1-65.46-17.92l-4.7-2.78-48.67,12.76,13-47.44L130,605.57a128.24,128.24,0,0,1-19.66-68.42c0-70.88,57.72-128.55,128.65-128.55A128.6,128.6,0,0,1,367.59,537.26C367.56,608.15,309.87,665.82,239,665.82Z" transform="translate(0)"/>
  <text/>  <g>
    <path class="f" d="M41.49,125.31c6.42,0,11.91,4.38,15.51,9.41L49.64,146.3c-2.51-3.06-4.7-4.81-8-4.81-6.11,0-11.28,7.66-11.28,20.56,0,13.33,4.38,20.77,11,20.77,3.92,0,6.74-2.41,8.93-5.69l7.37,11.37c-4.31,7-10.19,10.5-16.45,10.5-13.32,0-24.6-12-24.6-36.3C16.58,138.87,28.33,125.31,41.49,125.31Z" transform="translate(0)"/>
    <path class="f" d="M63.58,121.6H77.05v17.71l-.63,9.4c2.67-3.28,6.43-7,11.75-7,8.62,0,12.22,8.75,12.22,22.3v33.68H86.92V166.42c0-7-1.25-8.75-3.92-8.75-2.5,0-3.91,1.53-6,4.16v35.86H63.58Z" transform="translate(0)"/>
    <path class="f" d="M129.22,162.27c-.32-3.94-2-5.69-5.49-5.69-2.82,0-5.79,1.53-9.87,4.59l-4.7-12.24c5.49-4.59,11.13-7.22,17.24-7.22,10.18,0,16.29,7.66,16.29,25.59v30.39h-11l-.94-5.25h-.31c-3.13,3.94-6.58,6.56-10.81,6.56-7.36,0-11.75-7.87-11.75-16.84C107.91,170.79,114.18,164.45,129.22,162.27Zm-4.86,22.3c2.19,0,3.45-1.53,4.86-3.72v-7.43c-6.43,1.31-8.46,4.15-8.46,7.21C120.76,183.15,122,184.57,124.36,184.57Z" transform="translate(0)"/>
    <path class="f" d="M151.62,143h11l.94,6.67h.32c3.13-4.26,6.42-8,11.75-8s8.69,3.06,10.81,8.75c3.21-4.59,6.73-8.75,12.06-8.75,8.62,0,12.38,8.75,12.38,22.3v33.68H197.36V166.42c0-7-1.25-8.75-3.91-8.75-1.57,0-3.45,1.32-5.49,4.16v35.86H174.49V166.42c0-7-1.25-8.75-3.92-8.75-1.56,0-3.44,1.32-5.48,4.16v35.86H151.62Z" transform="translate(0)"/>
    <path class="f" d="M239.66,162.27c-.31-3.94-2-5.69-5.48-5.69-2.82,0-5.8,1.53-9.87,4.59l-4.7-12.24c5.48-4.59,11.12-7.22,17.23-7.22,10.18,0,16.29,7.66,16.29,25.59v30.39h-11l-.94-5.25h-.32c-3.13,3.94-6.58,6.56-10.81,6.56-7.36,0-11.74-7.87-11.74-16.84C218.36,170.79,224.62,164.45,239.66,162.27Zm-4.86,22.3c2.2,0,3.45-1.53,4.86-3.72v-7.43c-6.42,1.31-8.46,4.15-8.46,7.21C231.2,183.15,232.45,184.57,234.8,184.57Z" transform="translate(0)"/>
    <path class="f" d="M262.06,143h11l.94,9.41h.31c2.9-7.44,7.29-10.72,11.13-10.72a8.71,8.71,0,0,1,4.85,1.1L288.07,159a13.59,13.59,0,0,0-4.39-.88c-2.82,0-6.26,2.41-8.14,9.19v30.39H262.06Z" transform="translate(0)"/>
    <path class="f" d="M312.35,126.62h19.74c11,0,20.37,5.69,20.37,23.62,0,17.38-9.72,24.93-20.37,24.93h-6.27v22.52H312.35Zm19.11,33.68c5.33,0,7.84-3.72,7.84-10.06s-2.82-8.75-7.84-8.75h-5.64V160.3Z" transform="translate(0)"/>
    <path class="f" d="M374.86,141.71c11.59,0,17.07,11.81,17.07,26.46a47.87,47.87,0,0,1-.54,7.43H369.06c1.25,7,4.7,9.19,9.09,9.19,2.66,0,5.17-1.1,8-3.28l4.38,11.15c-4.23,4.15-9.87,6.34-14.25,6.34-11.44,0-20.21-10.5-20.21-28.64C356.06,152.65,365.3,141.71,374.86,141.71Zm5.64,22.52c0-4.59-1.26-8.31-5.33-8.31-3,0-5.48,2.3-6.27,8.31Z" transform="translate(0)"/>
    <path class="f" d="M399.29,121.6h13.48v57.5c0,3.72,1.25,4.81,2.19,4.81a3.52,3.52,0,0,0,1.41-.22l1.57,13.78a12.63,12.63,0,0,1-6.58,1.53c-9.09,0-12.07-8.31-12.07-20.55Z" transform="translate(0)"/>
    <path class="f" d="M440,141.71c10,0,19.42,10.5,19.42,28.65S450.05,199,440,199s-19.43-10.5-19.43-28.64S430,141.71,440,141.71Zm0,42.2c4.07,0,5.64-5.25,5.64-13.55S444.1,156.8,440,156.8s-5.64,5.25-5.64,13.56S436,183.91,440,183.91Z" transform="translate(0)"/>
    <path class="f" d="M70.24,257.81H84l2.82,31.05c.55,7.44,1.18,14.87,1.73,22.31h.31c.94-7.44,1.88-15,2.82-22.31l4.86-31.05h11.28l4.85,31.05c.94,7.11,1.88,14.76,2.82,22.31h.31c.55-7.55,1.18-15.09,1.73-22.31l2.82-31.05h12.84l-8.46,71.07H107.68l-3.92-28.21c-.78-5.47-1.41-11.37-1.88-16.62h-.31c-.55,5.25-1.1,11.15-1.88,16.62l-3.76,28.21H79.17Z" transform="translate(0)"/>
    <path class="f" d="M138.54,252.79H152V270.5l-.62,9.4c2.66-3.28,6.42-7,11.74-7,8.62,0,12.22,8.75,12.22,22.3v33.68H161.88V297.61c0-7-1.25-8.75-3.92-8.75-2.5,0-3.91,1.53-6,4.16v35.86H138.54Z" transform="translate(0)"/>
    <path class="f" d="M204.18,293.45c-.32-3.93-2-5.68-5.49-5.68-2.81,0-5.79,1.53-9.87,4.59l-4.69-12.24c5.48-4.59,11.12-7.22,17.23-7.22,10.18,0,16.29,7.65,16.29,25.58v30.4h-11l-.94-5.25h-.31c-3.13,3.94-6.58,6.56-10.81,6.56-7.36,0-11.75-7.87-11.75-16.84C182.87,302,189.14,295.64,204.18,293.45Zm-4.86,22.31c2.19,0,3.45-1.53,4.86-3.72v-7.43c-6.43,1.31-8.46,4.15-8.46,7.21C195.72,314.34,197,315.76,199.32,315.76Z" transform="translate(0)"/>
    <path class="f" d="M228.3,288.86h-5.17v-14l6-.66L230.65,260h11.13v14.21h8.93v14.65h-8.93v18.7c0,6,2.19,8,4.7,8a8.43,8.43,0,0,0,3.44-.88l2,13.56a22,22,0,0,1-9.24,2c-10.19,0-14.42-9-14.42-22.3Z" transform="translate(0)"/>
    <path class="f" d="M260.73,311c3.6,3.71,6.82,5.46,9.56,5.46s3.91-1.09,3.91-3.28c0-2.84-3.6-4.15-7.52-6.34-4.54-2.51-9.87-7.21-9.87-16.18,0-10.71,6.27-17.71,15.51-17.71,6.43,0,11,3.61,14.42,7.22l-6,11.15c-2.82-2.84-5.56-4.59-8-4.59-2.27,0-3.44.87-3.44,3.06,0,2.84,3.44,3.93,7.36,5.9,4.7,2.41,10,6.56,10,16.4,0,10.28-5.8,18.15-16.77,18.15-5,0-11.12-3.06-15.19-7.65Z" transform="translate(0)"/>
    <path class="f" d="M313.37,293.45c-.31-3.93-2-5.68-5.48-5.68-2.82,0-5.8,1.53-9.87,4.59l-4.7-12.24c5.48-4.59,11.12-7.22,17.23-7.22,10.18,0,16.29,7.65,16.29,25.58v30.4h-11l-.94-5.25h-.32c-3.13,3.94-6.58,6.56-10.81,6.56-7.36,0-11.75-7.87-11.75-16.84C292.06,302,298.33,295.64,313.37,293.45Zm-4.86,22.31c2.2,0,3.45-1.53,4.86-3.72v-7.43c-6.42,1.31-8.46,4.15-8.46,7.21C304.91,314.34,306.16,315.76,308.51,315.76Z" transform="translate(0)"/>
    <path class="f" d="M349.24,333v15.09H335.77V274.21h11l.94,5H348c2.9-3.71,6.74-6.34,10.65-6.34,9.25,0,15.2,10.93,15.2,27.77,0,18.81-8,29.52-16.29,29.52-3.29,0-6.27-2-8.78-5.47Zm5-18.15c3.13,0,5.79-3.5,5.79-14,0-9-1.88-12.68-5.48-12.68-2,0-3.6,1.09-5.33,3.93v20.12A6.16,6.16,0,0,0,354.26,314.88Z" transform="translate(0)"/>
    <path class="f" d="M394.67,333v15.09H381.2V274.21h11l.94,5h.31c2.9-3.71,6.74-6.34,10.65-6.34,9.25,0,15.2,10.93,15.2,27.77,0,18.81-8,29.52-16.29,29.52-3.29,0-6.27-2-8.78-5.47Zm5-18.15c3.13,0,5.79-3.5,5.79-14,0-9-1.88-12.68-5.48-12.68-2,0-3.6,1.09-5.33,3.93v20.12A6.16,6.16,0,0,0,399.69,314.88Z" transform="translate(0)"/>
  </g>
</svg>
